<svg width="118" height="99" viewBox="0 0 118 99" fill="none" xmlns="http://www.w3.org/2000/svg">
<path d="M63.2148 98.1836C83.7715 98.1836 97.492 90.9082 97.492 80.166C97.492 70.5469 89.289 68.3984 89.289 62.7344C89.289 54.9219 117.658 53.3594 117.658 33.291C117.658 13.4668 97.199 0.380859 66.8281 0.380859C26.9355 0.380859 0.03125 20.3027 0.03125 50.1367C0.03125 78.8476 25.5683 98.1836 63.2148 98.1836ZM63.2148 89.8339C30.1582 89.8339 8.38082 73.916 8.38082 50.1367C8.38082 25.2344 31.5254 8.73046 66.8281 8.73046C92.463 8.73046 109.309 18.6914 109.309 33.291C109.309 50.332 80.7441 48.0371 80.7441 62.7832C80.7441 71.1328 89.1426 73.7695 89.1426 79.5312C89.1426 85.7324 78.9375 89.8339 63.2148 89.8339ZM67.2676 33.291C71.8574 33.291 75.4707 29.6289 75.4707 25.0391C75.4707 20.498 71.8574 16.8359 67.2676 16.8359C62.7754 16.8359 59.0156 20.498 59.0156 25.0391C59.0156 29.6289 62.7754 33.291 67.2676 33.291ZM42.5605 41.2012C48.1758 41.2012 52.7656 36.6602 52.7656 30.8984C52.7656 25.2832 48.1269 20.791 42.5605 20.791C36.7988 20.791 32.209 25.2832 32.209 30.8984C32.209 36.6602 36.7988 41.2012 42.5605 41.2012ZM89.582 36.416C93.244 36.416 96.174 33.4375 96.174 29.7266C96.174 26.0645 93.244 23.0859 89.582 23.0859C85.8711 23.0859 82.8437 26.0645 82.8437 29.7266C82.8437 33.4375 85.8711 36.416 89.582 36.416ZM24.6894 56.8262C29.1816 56.8262 32.7949 53.1152 32.7949 48.623C32.7949 44.1309 29.2305 40.5176 24.6894 40.5176C20.2461 40.5176 16.584 44.1309 16.584 48.623C16.584 53.1152 20.2461 56.8262 24.6894 56.8262ZM59.2109 78.3105C66.6328 78.3105 72.7363 72.207 72.7363 64.7363C72.7363 57.3633 66.6328 51.2598 59.2109 51.2598C51.789 51.2598 45.6855 57.3633 45.6855 64.7363C45.6855 72.207 51.789 78.3105 59.2109 78.3105ZM59.2109 72.6465C54.8652 72.6465 51.3496 69.1309 51.3496 64.7363C51.3496 59.9023 55.0605 57.0215 59.1133 56.9727C63.2637 56.9238 67.0722 59.7559 67.0722 64.7363C67.0722 69.1309 63.6055 72.6465 59.2109 72.6465Z" fill="black"/>
</svg>
