<svg width="151" height="126" viewBox="0 0 151 126" fill="none" xmlns="http://www.w3.org/2000/svg">
<path d="M81.5117 125.416C107.489 125.416 124.969 116.334 124.969 102.955C124.969 90.748 114.276 88.3555 114.276 80.543C114.276 69.5078 150.897 68.4824 150.897 42.5059C150.897 17.4082 124.92 0.855469 86.1992 0.855469C35.1738 0.855469 0.798828 26.2461 0.798828 64.2344C0.798828 100.807 33.3672 125.416 81.5117 125.416ZM81.5117 116.236C38.3965 116.236 9.92973 95.3867 9.92973 64.2344C9.92973 31.666 40.1543 9.98627 86.1992 9.98627C119.696 9.98627 141.766 23.1211 141.766 42.5059C141.766 65.0156 104.95 61.8418 104.95 80.6895C104.95 91.3339 115.79 94.4589 115.79 102.174C115.79 110.768 102.411 116.236 81.5117 116.236ZM86.7363 42.1641C92.4985 42.1641 97.0395 37.5742 97.0395 31.8613C97.0395 26.1973 92.4985 21.6074 86.7363 21.6074C81.0722 21.6074 76.3847 26.1973 76.3847 31.8613C76.3847 37.5742 81.0722 42.1641 86.7363 42.1641ZM54.8027 52.5156C62.0293 52.5156 67.8398 46.8027 67.8398 39.4297C67.8398 32.252 61.9804 26.5391 54.8027 26.5391C47.4785 26.5391 41.6191 32.252 41.6191 39.4297C41.6191 46.8027 47.4785 52.5156 54.8027 52.5156ZM115.594 46.1191C120.086 46.1191 123.7 42.5059 123.7 37.916C123.7 33.375 120.038 29.7129 115.594 29.7129C110.956 29.7129 107.245 33.375 107.245 37.916C107.245 42.5059 110.956 46.1191 115.594 46.1191ZM31.8047 72.3887C37.3222 72.3887 41.7656 67.7988 41.7656 62.2812C41.7656 56.7148 37.3711 52.3203 31.8047 52.3203C26.2871 52.3203 21.7949 56.7637 21.7949 62.2812C21.7949 67.7988 26.3359 72.3887 31.8047 72.3887ZM76.3359 101.002C86.1992 101.002 94.2555 92.9453 94.2555 83.1309C94.2555 73.3164 86.1992 65.2598 76.3359 65.2598C66.5215 65.2598 58.4648 73.3164 58.4648 83.1309C58.4648 92.9453 66.5215 101.002 76.3359 101.002ZM76.3359 94.6054C69.9883 94.6054 64.8613 89.4785 64.8613 83.1309C64.8613 76.2949 70.1836 71.7539 76.2383 71.7051C82.3906 71.6562 87.8105 76.1484 87.8105 83.1309C87.8105 89.4785 82.7324 94.6054 76.3359 94.6054Z" fill="black"/>
</svg>
