<svg width="94" height="79" viewBox="0 0 94 79" fill="none" xmlns="http://www.w3.org/2000/svg">
<path d="M50.2851 78.1739C66.6914 78.1739 77.6289 72.3145 77.6289 63.5742C77.6289 56.0059 71.1836 54.0527 71.1836 49.8535C71.1836 44.3359 93.4004 42.5293 93.4004 26.8555C93.4004 11.0352 77.1406 0.585938 53.1172 0.585938C21.623 0.585938 0.285156 16.4062 0.285156 40.0391C0.285156 62.8418 20.5488 78.1739 50.2851 78.1739ZM50.2851 70.6543C24.6015 70.6543 7.80472 58.3984 7.80472 40.0391C7.80472 20.8496 25.6758 8.10554 53.1172 8.10554C72.9414 8.10554 85.8808 15.7227 85.8808 26.8555C85.8808 39.9414 63.5176 38.1836 63.5176 49.9023C63.5176 56.4941 70.1094 58.7402 70.1094 63.0859C70.1094 67.627 62.1992 70.6543 50.2851 70.6543ZM53.459 27.0508C57.1211 27.0508 60.0996 24.0723 60.0996 20.4102C60.0996 16.748 57.1211 13.7695 53.459 13.7695C49.7969 13.7695 46.7695 16.748 46.7695 20.4102C46.7695 24.0723 49.7969 27.0508 53.459 27.0508ZM34.0742 33.1055C38.5176 33.1055 42.1308 29.5898 42.1308 25C42.1308 20.5078 38.5176 16.9922 34.0742 16.9922C29.5332 16.9922 25.8711 20.5078 25.8711 25C25.8711 29.5898 29.5332 33.1055 34.0742 33.1055ZM70.9394 29.541C73.918 29.541 76.3105 27.0996 76.3105 24.0723C76.3105 21.0938 73.918 18.6035 70.9394 18.6035C67.9121 18.6035 65.4219 21.0938 65.4219 24.0723C65.4219 27.0996 67.9121 29.541 70.9394 29.541ZM20.1094 45.5566C23.7715 45.5566 26.7012 42.5293 26.7012 38.8672C26.7012 35.2051 23.7715 32.2754 20.1094 32.2754C16.4472 32.2754 13.4687 35.2051 13.4687 38.8672C13.4687 42.5293 16.4472 45.5566 20.1094 45.5566ZM47.1113 61.9141C52.8242 61.9141 57.4629 57.2266 57.4629 51.5137C57.4629 45.8496 52.8242 41.1621 47.1113 41.1621C41.4472 41.1621 36.7597 45.8496 36.7597 51.5137C36.7597 57.2266 41.4472 61.9141 47.1113 61.9141ZM47.1113 56.9336C44.1328 56.9336 41.7402 54.541 41.7402 51.5137C41.7402 48.0957 44.3281 46.2402 47.0137 46.1914C49.7969 46.1426 52.5312 47.9492 52.5312 51.5137C52.5312 54.541 50.1387 56.9336 47.1113 56.9336Z" fill="black"/>
</svg>
