<svg width="37" height="77" viewBox="0 0 37 77" fill="none" xmlns="http://www.w3.org/2000/svg">
<path d="M7.0625 76.2656C10.6484 76.2656 13.1797 73.5938 13.1797 69.7266V29.5781C13.1797 20.2266 17.8906 12.2812 28.9297 12.2812C31.6016 12.2812 33.5 11.7891 34.7656 10.7344C36.0312 9.75 36.6641 8.34375 36.6641 6.44531C36.6641 4.75781 36.1719 3.35156 35.1172 2.36719C33.9219 1.24219 32.0234 0.609375 29.3516 0.609375C22.0391 0.609375 14.8672 6.23438 12.7578 13.8281H12.4766V6.79688C12.4766 3.14062 10.0859 0.609375 6.71094 0.609375C3.33594 0.609375 0.945312 3.14062 0.945312 6.79688V69.7266C0.945312 73.5938 3.47656 76.2656 7.0625 76.2656Z" fill="#FE6748"/>
</svg>
